<?xml version="1.0" encoding="UTF-8"?>
<svg xmlns="http://www.w3.org/2000/svg" xmlns:xlink="http://www.w3.org/1999/xlink" viewBox="0 0 100 100" width="100px" height="100px">
<g id="surface15392122">
<path style=" stroke:none;fill-rule:nonzero;fill:rgb(0%,0%,0%);fill-opacity:1;" d="M 92.273438 13.105469 C 90.773438 11.832031 88.417969 11.648438 85.980469 12.628906 L 85.976562 12.628906 C 83.414062 13.65625 13.457031 43.664062 10.609375 44.890625 C 10.089844 45.070312 5.566406 46.757812 6.03125 50.519531 C 6.449219 53.90625 10.085938 55.3125 10.527344 55.472656 L 28.3125 61.5625 C 29.492188 65.492188 33.84375 79.984375 34.804688 83.078125 C 35.40625 85.011719 36.382812 87.546875 38.097656 88.066406 C 39.601562 88.648438 41.097656 88.117188 42.066406 87.359375 L 52.941406 77.273438 L 70.492188 90.960938 L 70.910156 91.210938 C 72.105469 91.738281 73.246094 92.003906 74.335938 92.003906 C 75.179688 92.003906 75.984375 91.847656 76.757812 91.53125 C 79.386719 90.449219 80.441406 87.945312 80.550781 87.660156 L 93.660156 19.507812 C 94.460938 15.867188 93.351562 14.015625 92.273438 13.105469 Z M 44 64 L 38 80 L 32 60 L 78 26 Z M 44 64 "/>
</g>
</svg>
